<svg width="292" height="292" viewBox="0 0 292 292" fill="none" xmlns="http://www.w3.org/2000/svg">
<path d="M182.991 106H102.008C98.1376 106 95 109.138 95 113.008V219.238C95 223.108 98.1376 226.246 102.008 226.246H182.991C186.862 226.246 189.999 223.108 189.999 219.238V113.008C189.999 109.138 186.862 106 182.991 106Z" fill="#263238"/>
<path d="M188.446 106H107.463C103.592 106 100.455 109.138 100.455 113.008V219.238C100.455 223.108 103.592 226.246 107.463 226.246H188.446C192.316 226.246 195.454 223.108 195.454 219.238V113.008C195.454 109.138 192.316 106 188.446 106Z" fill="#00ECBC"/>
<path d="M117.052 226.251H109.168C108.926 226.251 108.73 226.447 108.73 226.689V227.956C108.73 228.198 108.926 228.394 109.168 228.394H117.052C117.294 228.394 117.49 228.198 117.49 227.956V226.689C117.49 226.447 117.294 226.251 117.052 226.251Z" fill="#263238"/>
<path d="M186.735 226.251H178.851C178.609 226.251 178.413 226.447 178.413 226.689V227.956C178.413 228.198 178.609 228.394 178.851 228.394H186.735C186.977 228.394 187.173 228.198 187.173 227.956V226.689C187.173 226.447 186.977 226.251 186.735 226.251Z" fill="#263238"/>
<path opacity="0.2" d="M188.446 106H107.463C103.592 106 100.455 109.138 100.455 113.008V219.238C100.455 223.108 103.592 226.246 107.463 226.246H188.446C192.316 226.246 195.454 223.108 195.454 219.238V113.008C195.454 109.138 192.316 106 188.446 106Z" fill="black"/>
<g style="mix-blend-mode:color-dodge" opacity="0.4">
<path d="M178.903 212.382H116.999C116.29 212.38 115.611 212.098 115.11 211.596C114.608 211.095 114.326 210.416 114.325 209.707V122.551C114.325 121.841 114.606 121.16 115.108 120.657C115.609 120.155 116.289 119.872 116.999 119.87H178.903C179.613 119.872 180.294 120.155 180.795 120.657C181.296 121.16 181.578 121.841 181.578 122.551V209.707C181.576 210.416 181.294 211.095 180.793 211.596C180.292 212.098 179.612 212.38 178.903 212.382ZM116.999 120.162C116.367 120.164 115.761 120.416 115.314 120.864C114.867 121.312 114.617 121.918 114.617 122.551V209.707C114.617 210.02 114.678 210.33 114.798 210.619C114.918 210.908 115.093 211.17 115.314 211.392C115.536 211.613 115.798 211.788 116.087 211.908C116.377 212.028 116.686 212.09 116.999 212.09H178.903C179.535 212.09 180.141 211.839 180.588 211.392C181.035 210.945 181.286 210.339 181.286 209.707V122.551C181.286 121.918 181.035 121.312 180.588 120.864C180.142 120.416 179.536 120.164 178.903 120.162H116.999Z" fill="#E6E6E6"/>
</g>
<path d="M180.27 209.706V122.544C180.27 121.793 179.661 121.184 178.909 121.184H116.999C116.248 121.184 115.639 121.793 115.639 122.544V209.706C115.639 210.458 116.248 211.067 116.999 211.067H178.909C179.661 211.067 180.27 210.458 180.27 209.706Z" fill="#00ECBC"/>
<path opacity="0.1" d="M180.27 209.706V122.544C180.27 121.793 179.661 121.184 178.909 121.184H116.999C116.248 121.184 115.639 121.793 115.639 122.544V209.706C115.639 210.458 116.248 211.067 116.999 211.067H178.909C179.661 211.067 180.27 210.458 180.27 209.706Z" fill="white"/>
<path d="M197.492 130.791H196.908V135.72H197.492V130.791Z" fill="#00ECBC"/>
<path d="M197.492 113.008H196.908V125.599H197.492V113.008Z" fill="#00ECBC"/>
<path opacity="0.1" d="M147.951 187.743C158.95 187.743 167.866 178.827 167.866 167.828C167.866 156.83 158.95 147.914 147.951 147.914C136.953 147.914 128.037 156.83 128.037 167.828C128.037 178.827 136.953 187.743 147.951 187.743Z" fill="black"/>
<path d="M147.951 138.254C150.638 138.254 152.816 136.076 152.816 133.389C152.816 130.702 150.638 128.524 147.951 128.524C145.265 128.524 143.087 130.702 143.087 133.389C143.087 136.076 145.265 138.254 147.951 138.254Z" fill="#00ECBC"/>
<path opacity="0.6" d="M147.922 138.243C150.609 138.243 152.787 136.065 152.787 133.378C152.787 130.692 150.609 128.514 147.922 128.514C145.235 128.514 143.057 130.692 143.057 133.378C143.057 136.065 145.235 138.243 147.922 138.243Z" fill="white"/>
<path d="M147.951 137.232C147.191 137.232 146.448 137.007 145.816 136.585C145.184 136.162 144.692 135.562 144.401 134.86C144.11 134.158 144.034 133.385 144.182 132.64C144.331 131.895 144.697 131.21 145.234 130.672C145.771 130.135 146.456 129.769 147.202 129.621C147.947 129.472 148.72 129.549 149.422 129.839C150.124 130.13 150.724 130.623 151.146 131.255C151.569 131.887 151.794 132.63 151.794 133.39C151.792 134.408 151.387 135.385 150.667 136.105C149.946 136.825 148.97 137.231 147.951 137.232ZM147.951 129.839C147.249 129.839 146.562 130.047 145.979 130.437C145.395 130.827 144.94 131.382 144.671 132.031C144.402 132.68 144.332 133.394 144.469 134.082C144.606 134.771 144.944 135.404 145.441 135.9C145.937 136.397 146.57 136.735 147.259 136.872C147.947 137.009 148.661 136.939 149.31 136.67C149.959 136.401 150.513 135.946 150.904 135.362C151.294 134.778 151.502 134.092 151.502 133.39C151.5 132.448 151.126 131.546 150.46 130.881C149.795 130.215 148.892 129.84 147.951 129.839Z" fill="#00ECBC"/>
<path d="M115.557 132.631H113.39C112.913 132.631 112.526 133.018 112.526 133.495V145.35C112.526 145.828 112.913 146.215 113.39 146.215H115.557C116.034 146.215 116.421 145.828 116.421 145.35V133.495C116.421 133.018 116.034 132.631 115.557 132.631Z" fill="#00ECBC"/>
<path opacity="0.6" d="M115.557 132.631H113.39C112.913 132.631 112.526 133.018 112.526 133.495V145.35C112.526 145.828 112.913 146.215 113.39 146.215H115.557C116.034 146.215 116.421 145.828 116.421 145.35V133.495C116.421 133.018 116.034 132.631 115.557 132.631Z" fill="white"/>
<path d="M115.557 186.037H113.39C112.913 186.037 112.526 186.424 112.526 186.901V198.757C112.526 199.234 112.913 199.621 113.39 199.621H115.557C116.034 199.621 116.421 199.234 116.421 198.757V186.901C116.421 186.424 116.034 186.037 115.557 186.037Z" fill="#00ECBC"/>
<path opacity="0.6" d="M115.557 186.037H113.39C112.913 186.037 112.526 186.424 112.526 186.901V198.757C112.526 199.234 112.913 199.621 113.39 199.621H115.557C116.034 199.621 116.421 199.234 116.421 198.757V186.901C116.421 186.424 116.034 186.037 115.557 186.037Z" fill="white"/>
<path d="M147.951 186.043C158.95 186.043 167.866 177.127 167.866 166.128C167.866 155.13 158.95 146.214 147.951 146.214C136.953 146.214 128.037 155.13 128.037 166.128C128.037 177.127 136.953 186.043 147.951 186.043Z" fill="#00ECBC"/>
<path opacity="0.6" d="M147.951 186.043C158.95 186.043 167.866 177.127 167.866 166.128C167.866 155.13 158.95 146.214 147.951 146.214C136.953 146.214 128.037 155.13 128.037 166.128C128.037 177.127 136.953 186.043 147.951 186.043Z" fill="white"/>
<path d="M138.099 155.444L137.273 156.27L157.813 176.81L158.639 175.984L138.099 155.444Z" fill="#00ECBC"/>
<path d="M157.813 155.443L137.273 175.983L138.099 176.809L158.639 156.269L157.813 155.443Z" fill="#00ECBC"/>
<path opacity="0.2" d="M157.745 155.377L137.205 175.917L138.031 176.743L158.571 156.203L157.745 155.377Z" fill="black"/>
<path opacity="0.2" d="M138.035 155.381L137.209 156.207L157.75 176.747L158.576 175.921L138.035 155.381Z" fill="black"/>
<path d="M147.893 181.178C144.902 181.179 141.978 180.293 139.491 178.633C137.004 176.972 135.065 174.611 133.92 171.848C132.775 169.086 132.474 166.045 133.057 163.112C133.64 160.179 135.079 157.484 137.194 155.369C139.308 153.254 142.002 151.813 144.935 151.229C147.868 150.646 150.909 150.945 153.672 152.089C156.435 153.233 158.797 155.171 160.458 157.658C162.12 160.144 163.007 163.068 163.007 166.058C163.004 170.066 161.41 173.909 158.577 176.744C155.743 179.579 151.901 181.173 147.893 181.178ZM147.893 152.106C145.133 152.105 142.435 152.923 140.14 154.455C137.845 155.987 136.056 158.166 134.999 160.715C133.942 163.264 133.665 166.07 134.203 168.777C134.74 171.483 136.069 173.97 138.02 175.922C139.97 177.873 142.456 179.203 145.163 179.741C147.87 180.28 150.675 180.004 153.225 178.949C155.774 177.893 157.954 176.105 159.487 173.81C161.02 171.516 161.839 168.818 161.839 166.058C161.836 162.36 160.366 158.814 157.751 156.198C155.136 153.583 151.591 152.111 147.893 152.106Z" fill="#00ECBC"/>
<path d="M152.361 170.532C154.831 168.062 154.831 164.057 152.361 161.587C149.891 159.117 145.886 159.117 143.416 161.587C140.946 164.057 140.946 168.062 143.416 170.532C145.886 173.002 149.891 173.002 152.361 170.532Z" fill="#00ECBC"/>
<path opacity="0.2" d="M147.893 181.178C144.902 181.179 141.978 180.293 139.491 178.633C137.004 176.972 135.065 174.611 133.92 171.848C132.775 169.086 132.474 166.045 133.057 163.112C133.64 160.179 135.079 157.484 137.194 155.369C139.308 153.254 142.002 151.813 144.935 151.229C147.868 150.646 150.909 150.945 153.672 152.089C156.435 153.233 158.797 155.171 160.458 157.658C162.12 160.144 163.007 163.068 163.007 166.058C163.004 170.066 161.41 173.909 158.577 176.744C155.743 179.579 151.901 181.173 147.893 181.178ZM147.893 152.106C145.133 152.105 142.435 152.923 140.14 154.455C137.845 155.987 136.056 158.166 134.999 160.715C133.942 163.264 133.665 166.07 134.203 168.777C134.74 171.483 136.069 173.97 138.02 175.922C139.97 177.873 142.456 179.203 145.163 179.741C147.87 180.28 150.675 180.004 153.225 178.949C155.774 177.893 157.954 176.105 159.487 173.81C161.02 171.516 161.839 168.818 161.839 166.058C161.836 162.36 160.366 158.814 157.751 156.198C155.136 153.583 151.591 152.111 147.893 152.106Z" fill="black"/>
<path opacity="0.2" d="M152.361 170.532C154.831 168.062 154.831 164.057 152.361 161.587C149.891 159.117 145.886 159.117 143.416 161.587C140.946 164.057 140.946 168.062 143.416 170.532C145.886 173.002 149.891 173.002 152.361 170.532Z" fill="black"/>
</svg>
