<svg width="103" height="142" viewBox="0 0 103 142" fill="none" xmlns="http://www.w3.org/2000/svg">
<path d="M24.7841 84.6768L5.15482 130.294C5.06069 130.506 5.03324 130.742 5.07609 130.97C5.11894 131.199 5.23006 131.409 5.39479 131.573C5.55953 131.737 5.77011 131.847 5.99871 131.888C6.22731 131.93 6.46318 131.901 6.67513 131.806L21.8068 125.123C21.9554 125.055 22.1168 125.019 22.2803 125.017C22.4438 125.016 22.6057 125.049 22.7554 125.115C22.9051 125.181 23.0391 125.278 23.1486 125.399C23.258 125.521 23.3405 125.664 23.3905 125.82L28.4978 141.142C28.5759 141.367 28.7224 141.563 28.9168 141.701C29.1112 141.839 29.3439 141.914 29.5825 141.914C29.8212 141.914 30.0539 141.839 30.2483 141.701C30.4427 141.563 30.5892 141.367 30.6673 141.142L49.1247 91.9378L24.7841 84.6768Z" fill="#00ECBC"/>
<path d="M50.3677 92.302L59.7666 141.062C59.8105 141.29 59.922 141.5 60.0865 141.663C60.251 141.827 60.4609 141.937 60.689 141.98C60.917 142.023 61.1526 141.996 61.3652 141.903C61.5777 141.81 61.7574 141.655 61.8808 141.458L70.6383 127.435C70.7234 127.299 70.836 127.182 70.9687 127.092C71.1015 127.001 71.2517 126.94 71.4096 126.911C71.5675 126.882 71.7297 126.886 71.886 126.923C72.0422 126.96 72.189 127.029 72.317 127.126L85.1524 136.937C85.3422 137.08 85.5715 137.161 85.809 137.169C86.0465 137.177 86.2807 137.112 86.4797 136.982C86.6788 136.852 86.833 136.664 86.9214 136.444C87.0098 136.223 87.028 135.981 86.9736 135.749L74.5737 84.6768L50.3677 92.302Z" fill="#00ECBC"/>
<g opacity="0.3">
<path d="M24.7841 84.6768L5.15482 130.294C5.06069 130.506 5.03324 130.742 5.07609 130.97C5.11894 131.199 5.23006 131.409 5.39479 131.573C5.55953 131.737 5.77011 131.847 5.99871 131.888C6.22731 131.93 6.46318 131.901 6.67513 131.806L21.8068 125.123C21.9554 125.055 22.1168 125.019 22.2803 125.017C22.4438 125.016 22.6057 125.049 22.7554 125.115C22.9051 125.181 23.0391 125.278 23.1486 125.399C23.258 125.521 23.3405 125.664 23.3905 125.82L28.4978 141.142C28.5759 141.367 28.7224 141.563 28.9168 141.701C29.1112 141.839 29.3439 141.914 29.5825 141.914C29.8212 141.914 30.0539 141.839 30.2483 141.701C30.4427 141.563 30.5892 141.367 30.6673 141.142L49.1247 91.9378L24.7841 84.6768Z" fill="black"/>
</g>
<g opacity="0.3">
<path d="M50.3677 92.302L59.7666 141.062C59.8105 141.29 59.922 141.5 60.0865 141.663C60.251 141.827 60.4609 141.937 60.689 141.98C60.917 142.023 61.1526 141.996 61.3652 141.903C61.5777 141.81 61.7574 141.655 61.8808 141.458L70.6383 127.435C70.7234 127.299 70.836 127.182 70.9687 127.092C71.1015 127.001 71.2517 126.94 71.4096 126.911C71.5675 126.882 71.7297 126.886 71.886 126.923C72.0422 126.96 72.189 127.029 72.317 127.126L85.1524 136.937C85.3422 137.08 85.5715 137.161 85.809 137.169C86.0465 137.177 86.2807 137.112 86.4797 136.982C86.6788 136.852 86.833 136.664 86.9214 136.444C87.0098 136.223 87.028 135.981 86.9736 135.749L74.5737 84.6768L50.3677 92.302Z" fill="black"/>
</g>
<path d="M51.318 4.74974L57.7635 0.0146484L62.8311 6.19878L70.2505 3.22153L73.6157 10.4746L81.5498 9.42942L82.9989 17.2922L90.9408 18.2503L90.3945 26.2319L97.8456 29.13L95.3354 36.7235L101.828 41.3953L97.5129 48.1258L102.644 54.2545L96.7766 59.7022L100.229 66.9157L93.1975 70.7323L94.7416 78.5793L86.9817 80.5272L86.5224 88.5087L78.5251 88.4691L76.0942 96.0865L68.358 94.0594L64.1059 100.829L57.1221 96.9417L51.318 102.445L45.5219 96.9417L38.538 100.829L34.2859 94.0594L26.5498 96.0865L24.1189 88.4691L16.1215 88.5087L15.6623 80.5272L7.9024 78.5793L9.44646 70.7323L2.41507 66.9157L5.85948 59.7022L0 54.2545L5.13102 48.1258L0.815576 41.3953L7.30853 36.7235L4.79054 29.13L12.2495 26.2319L11.7031 18.2503L19.6451 17.2922L21.0942 9.42942L29.0282 10.4746L32.3935 3.22153L39.8128 6.19878L44.8726 0.0146484L51.318 4.74974Z" fill="#00ECBC"/>
<path d="M76.9339 76.847C91.0809 62.6999 91.081 39.7629 76.9339 25.6159C62.7868 11.4688 39.8498 11.4688 25.7027 25.6159C11.5556 39.763 11.5556 62.6999 25.7027 76.847C39.8498 90.9941 62.7868 90.9941 76.9339 76.847Z" fill="white"/>
<path d="M59.2206 42.6467L68.9362 44.0719C69.2963 44.1242 69.6346 44.2762 69.9127 44.5109C70.1908 44.7455 70.3977 45.0534 70.5098 45.3996C70.6219 45.7458 70.6348 46.1164 70.547 46.4696C70.4592 46.8227 70.2743 47.1442 70.0131 47.3976L62.9738 54.2469C62.7464 54.4669 62.5763 54.7392 62.4783 55.0401C62.3803 55.341 62.3574 55.6613 62.4116 55.973L64.0665 65.6729C64.1274 66.031 64.087 66.399 63.9498 66.7353C63.8126 67.0717 63.5841 67.3629 63.2901 67.5762C62.996 67.7896 62.6482 67.9164 62.2859 67.9425C61.9236 67.9685 61.5612 67.8927 61.2397 67.7237L52.5296 63.139C52.2505 62.9907 51.9392 62.9131 51.623 62.9131C51.3069 62.9131 50.9956 62.9907 50.7164 63.139L42.0063 67.6999C41.6844 67.8675 41.3221 67.9418 40.9602 67.9144C40.5983 67.887 40.2513 67.7591 39.9582 67.5451C39.6651 67.3311 39.4376 67.0394 39.3015 66.703C39.1653 66.3666 39.1258 65.9988 39.1875 65.6412L40.8582 55.9651C40.912 55.654 40.8897 55.3345 40.7931 55.0339C40.6966 54.7333 40.5288 54.4606 40.3039 54.2389L33.2725 47.3738C33.0112 47.1199 32.8264 46.7978 32.739 46.4441C32.6516 46.0904 32.6652 45.7192 32.7782 45.3728C32.8911 45.0264 33.099 44.7187 33.3782 44.4845C33.6573 44.2504 33.9966 44.0992 34.3573 44.0482L44.0809 42.6467C44.3933 42.6034 44.6903 42.484 44.9458 42.299C45.2012 42.114 45.4073 41.869 45.5458 41.5856L49.9087 32.7806C50.0697 32.455 50.3186 32.181 50.6271 31.9894C50.9356 31.7978 51.2915 31.6963 51.6547 31.6963C52.0179 31.6963 52.3738 31.7978 52.6823 31.9894C52.9908 32.181 53.2396 32.455 53.4007 32.7806L57.7319 41.6015C57.8757 41.8841 58.0866 42.1271 58.3462 42.3093C58.6057 42.4915 58.9059 42.6074 59.2206 42.6467Z" fill="#00ECBC"/>
</svg>
