<svg width="336" height="336" viewBox="0 0 336 336" fill="none" xmlns="http://www.w3.org/2000/svg">
<path d="M168.313 111C159.551 119.338 137.137 127.761 111 145.627C111 145.627 112.632 205.998 168.313 239V111Z" fill="#00ECBC" stroke="white" stroke-linecap="round" stroke-linejoin="round"/>
<path d="M168.313 111C177.07 119.338 199.49 127.761 225.627 145.627C225.627 145.627 223.995 205.998 168.313 239V111Z" fill="#99F7E4" stroke="#99F7E4" stroke-linecap="round" stroke-linejoin="round"/>
<path d="M168.11 116C157.538 123.495 139.216 130.642 115 147.192C115 147.192 116.513 203.128 168.11 233.721C219.706 203.141 221.219 147.192 221.219 147.192C196.997 130.648 178.761 123.495 168.11 116Z" fill="#00BD96" stroke="#99F7E4" stroke-linecap="round" stroke-linejoin="round"/>
<path d="M212.371 141.39C175.425 152.577 147.242 185.052 134.427 202.182C143.242 215.118 154.815 225.937 168.314 233.861C219.91 203.281 221.423 147.332 221.423 147.332C218.305 145.209 215.287 143.228 212.371 141.39Z" fill="#00ECBC" stroke="#19EEC3" stroke-linecap="round" stroke-linejoin="round"/>
</svg>
