<?xml version="1.0" encoding="UTF-8"?>
<svg width="300px" height="300px" viewBox="0 0 300 300" version="1.1" xmlns="http://www.w3.org/2000/svg" xmlns:xlink="http://www.w3.org/1999/xlink">
    <title>BEVM_Token_1</title>
    <defs>
        <linearGradient x1="0%" y1="50.0303895%" x2="99.990685%" y2="50.0303895%" id="linearGradient-1">
            <stop stop-color="#997D4C" offset="18%"></stop>
            <stop stop-color="#AA8C52" offset="91%"></stop>
            <stop stop-color="#AC8E53" offset="98%"></stop>
        </linearGradient>
    </defs>
    <g id="官网" stroke="none" stroke-width="1" fill="none" fill-rule="evenodd">
        <g id="Brand-Hub" transform="translate(-725, -1103)" fill-rule="nonzero">
            <g id="BEVM_Token_1" transform="translate(725, 1103)">
                <path d="M150,0 C232.842712,0 300,67.1572875 300,150 C300,232.842712 232.842712,300 150,300 C67.1572875,300 0,232.842712 0,150 C0,67.1572875 67.1572875,0 150,0 Z" id="矩形" fill="#FDF6DD"></path>
                <g id="编组-23" transform="translate(74.25, 73.125)">
                    <g id="编组">
                        <polygon id="路径" fill="#B0915A" points="66.3126825 0 82.7328759 10.3470131 69.986241 53.6580036 53.5707633 43.3109904"></polygon>
                        <polygon id="路径" fill="#B0915A" points="46.8979965 65.9893752 63.3134742 76.3363884 47.2752555 130.873179 30.8550618 120.526166"></polygon>
                        <path d="M92.9613078,22.9476907 C91.7048757,22.1654737 90.2529441,21.7559353 88.7737338,21.7665248 L65.2233474,21.7665248 L81.6435408,32.1277119 L105.193928,32.1277119 C106.680481,32.1077028 108.141709,32.5142769 109.40508,33.2994285 L92.9613078,22.9476907 Z" id="路径" fill="#997D4C"></path>
                        <polygon id="路径" fill="#997D4C" points="74.3718756 65.9893752 90.7873533 76.3363884 63.3134742 76.3363884 46.8979965 65.9893752"></polygon>
                        <polygon id="路径" fill="#AB8E56" points="86.9251653 43.3109904 103.345359 53.6580036 90.7873533 76.3363884 74.3718756 65.9893752"></polygon>
                        <path d="M139.114218,39.3469977 C139.071776,38.4729351 139.005756,37.5988722 138.897294,36.7389834 L138.897294,36.6586641 C138.755822,35.5751415 138.564049,34.5089424 138.321974,33.4600671 C138.255954,33.1765872 138.161639,32.9072814 138.090903,32.6238015 C137.892842,31.8631308 137.680634,31.1071845 137.4307,30.370137 C137.39769,30.2756439 137.378827,30.1764258 137.345817,30.0819327 C137.256218,29.8268008 137.133609,29.6094662 137.039294,29.3401604 C136.779928,28.6503596 136.5017,27.9652833 136.195177,27.3038304 C136.02541,26.930582 135.841497,26.5667829 135.657583,26.2029838 C135.336913,25.5840529 135.002096,24.9745713 134.6437,24.3792637 C134.521091,24.1761032 134.426776,23.954044 134.299451,23.7556082 C134.172126,23.5571723 134.00236,23.3209391 133.856172,23.1036046 L133.478913,22.5460943 C133.007339,21.8562934 132.488608,21.1759419 131.946299,20.528663 L131.92272,20.500315 C131.257515,19.7118321 130.550718,18.9595374 129.805354,18.2466505 L129.720471,18.1568819 C129.399801,17.8497788 129.046121,17.5804729 128.711304,17.2875438 C128.376487,16.9946146 127.989796,16.6402649 127.607821,16.3426111 L127.508791,16.2575671 C126.804575,15.7158057 126.075207,15.2055421 125.32069,14.7267762 L108.86277,4.37976309 C109.655014,4.88057742 110.418963,5.42391372 111.149902,5.99559801 C111.536593,6.29797647 111.894988,6.62870292 112.262816,6.94053069 C112.630643,7.25235849 113.003186,7.55473695 113.347435,7.8854634 C114.092799,8.59835034 114.799596,9.35064504 115.464801,10.1391279 C116.016542,10.7958561 116.530557,11.4809323 117.020994,12.1849072 C117.153034,12.3691691 117.275644,12.5581556 117.402968,12.7471421 C117.676481,13.1581879 117.931131,13.5881323 118.185781,14.0180766 C118.544176,14.6133842 118.882138,15.2228658 119.199664,15.8465214 C119.383578,16.2055958 119.567491,16.5693949 119.737258,16.9379187 C120.048496,17.6040962 120.322009,18.2891725 120.58609,18.9789733 C120.713415,19.3238738 120.854887,19.6593249 120.972781,20.00895 C121.22743,20.7459975 121.444354,21.5019437 121.632984,22.2673391 C121.70372,22.5460943 121.798034,22.8154001 121.864055,23.0988799 C122.111102,24.1543534 122.303135,25.2219974 122.439375,26.2974771 C122.557268,27.1857139 122.628004,28.0833999 122.670446,28.9858106 C122.670446,29.1511739 122.670446,29.3165371 122.694024,29.486625 C122.722319,30.3795864 122.717603,31.2819972 122.694024,32.1844077 C122.694024,32.349771 122.694024,32.5151343 122.66573,32.6852223 C122.613857,33.5545602 122.528974,34.4333478 122.406364,35.3121351 C122.406364,35.4113529 122.406364,35.5152957 122.368639,35.6192382 C122.227166,36.564171 122.038537,37.5091035 121.816897,38.4918336 C121.779172,38.6524722 121.741446,38.8083861 121.699004,38.9643 C121.48208,39.8525367 121.22743,40.7360487 120.930339,41.619561 C120.765288,42.0920271 120.567227,42.5975661 120.383314,43.0889313 C120.1994,43.5802962 119.968329,44.2039518 119.727826,44.7614622 C119.539197,45.1914066 119.317557,45.621351 119.110065,46.0512951 C118.765816,46.7694441 118.430999,47.4686943 118.030161,48.2010171 L106.151222,69.376959 L103.604724,73.4968656 C103.628303,73.4968656 103.684892,73.5960834 103.750912,73.6858521 L103.835795,73.7945193 L104.052719,74.0874486 C104.095161,74.1488691 104.147034,74.2244637 104.198907,74.2906092 L104.481851,74.6969301 L104.675196,74.98041 C104.783658,75.1410486 104.896836,75.3205857 105.014729,75.5048475 L105.231653,75.8402988 C105.46744,76.2182718 105.703227,76.6340421 105.986171,77.0923344 C106.023897,77.1632046 106.066339,77.2435239 106.10878,77.3143938 C106.339851,77.7207147 106.580354,78.1648332 106.816141,78.6278502 C106.886877,78.7648653 106.957613,78.9018807 107.028349,79.0483452 C107.306577,79.6058556 107.589521,80.1964383 107.86775,80.8248186 C107.896044,80.8956885 107.924338,80.9760078 107.957349,81.046878 C108.202567,81.6138375 108.428922,82.2138699 108.669425,82.8375255 C108.744877,83.0501352 108.825044,83.2627452 108.900496,83.4800796 C109.004242,83.7682842 109.098557,84.0659379 109.197587,84.3635916 C109.296618,84.6612456 109.372069,84.9163773 109.452237,85.1998572 C109.532405,85.4833368 109.626719,85.8235128 109.711603,86.1447897 C109.796486,86.4660669 109.862506,86.7259233 109.933242,87.028302 C110.003978,87.3306804 110.07943,87.6850302 110.14545,88.0204812 C110.211471,88.3559322 110.268059,88.6299627 110.324648,88.965414 C110.381237,89.300865 110.43311,89.6599395 110.484983,90.0095646 C110.536856,90.3591897 110.565151,90.6095967 110.598161,90.9167001 C110.68776,91.7246175 110.758496,92.546709 110.782075,93.3924237 L127.202268,103.739437 C127.178689,102.893722 127.107953,102.07163 127.018355,101.263713 C127.018355,101.178669 127.018355,101.088901 127.018355,101.003857 C126.99006,100.781797 126.952334,100.573912 126.919324,100.351853 C126.872167,100.006953 126.820294,99.6573276 126.763705,99.3171516 C126.707116,98.9769759 126.645811,98.693496 126.584507,98.3722191 C126.523202,98.0509419 126.44775,97.7107662 126.372298,97.3847643 C126.296847,97.0587624 126.226111,96.7894566 126.150659,96.5012523 C126.075207,96.2130477 125.980892,95.872872 125.891294,95.5563195 C125.801695,95.239767 125.721527,94.98936 125.631928,94.7153295 C125.542329,94.441299 125.438583,94.1247465 125.339552,93.8365419 C125.301826,93.72315 125.264101,93.6003087 125.226375,93.4916415 C125.188649,93.3829743 125.146207,93.2932056 125.103766,93.1892631 C124.87741,92.5656075 124.632192,91.9655754 124.391689,91.3986156 C124.363395,91.3277457 124.3351,91.2474264 124.30209,91.1812812 C124.028578,90.5481762 123.745633,89.9575932 123.467405,89.4000831 L123.250481,88.9795878 C123.014695,88.5071217 122.778908,88.0724526 122.547837,87.6661314 L122.425227,87.448797 C122.156431,86.9763306 121.906496,86.5700094 121.665994,86.1873117 L121.604689,86.0880939 L121.458502,85.8613101 L121.114253,85.3321476 L120.916192,85.0439433 C120.817161,84.8974785 120.722847,84.7699128 120.637963,84.6470715 L120.48706,84.4391862 L120.274852,84.1462572 L120.189968,84.03759 L120.043781,83.8486032 L122.590278,79.7286969 L134.431492,58.5858276 C134.587111,58.3070724 134.738015,58.0283172 134.903065,57.7542867 C135.134137,57.3148932 135.31805,56.8754994 135.530258,56.4361056 C135.742466,55.9967118 135.954675,55.5762168 136.143304,55.1462724 C136.195177,55.0376052 136.256482,54.928938 136.303639,54.8155461 C136.492268,54.3714276 136.633741,53.9225847 136.803507,53.4737415 C136.973274,53.0248986 137.185482,52.4957364 137.350532,52.0090959 C137.378827,51.9098781 137.425984,51.8153847 137.454279,51.7161669 C137.708929,50.9318727 137.925852,50.1381291 138.119197,49.3538349 C138.156923,49.197921 138.199365,49.0420074 138.232375,48.8813688 C138.265385,48.7207302 138.340837,48.4655982 138.383279,48.2577132 C138.543614,47.5064916 138.68037,46.75527 138.788832,46.0087734 C138.788832,45.9048306 138.812411,45.8056128 138.826558,45.70167 C138.906725,45.1205364 138.982177,44.5441275 139.029335,43.9677186 C139.057629,43.6700649 139.06706,43.3724109 139.085924,43.0747572 L139.114218,42.5739429 C139.15666,41.6715321 139.161375,40.7691213 139.114218,39.8761599 C139.114218,39.6871734 139.114218,39.512361 139.114218,39.3469977 Z" id="路径" fill="#B29257"></path>
                        <polygon id="路径" fill="#997D4C" points="110.763212 93.3735249 127.183405 103.725263 79.3422615 103.725263 62.9220681 93.3735249"></polygon>
                        <path d="M151.846706,100.077823 C151.846706,99.3880215 151.818411,98.6982207 151.775969,98.0131446 C151.775969,97.8005346 151.775969,97.5926496 151.74296,97.3847643 C151.691086,96.5815716 151.62035,95.7831033 151.526036,94.98936 C151.526036,94.9326639 151.526036,94.8759681 151.502457,94.819272 C151.445868,94.3468056 151.365701,93.8743392 151.294964,93.4018731 C151.224228,92.9294067 151.153492,92.419143 151.063893,91.9325025 C150.974294,91.4458623 150.875264,90.98757 150.776233,90.5481762 C150.677203,90.1087824 150.582888,89.5796202 150.464995,89.0977044 C150.347102,88.6157889 150.224492,88.1905692 150.101883,87.7370013 C149.979274,87.2834337 149.851949,86.7920688 149.710477,86.3196024 C149.569005,85.847136 149.418101,85.426641 149.271914,84.9825225 C149.125726,84.5384043 149.02198,84.1746051 148.880507,83.782458 C148.856929,83.7210375 148.828634,83.6643414 148.809772,83.6029209 C148.635289,83.1304545 148.44666,82.6579881 148.267462,82.2138699 C148.088264,81.7697514 147.93736,81.3539811 147.753447,80.9334861 C147.569533,80.5129908 147.347893,80.0310753 147.140401,79.5822321 C146.932909,79.1333892 146.767858,78.7506915 146.565081,78.3396456 C146.362304,77.9286 146.093507,77.4703077 145.881299,77.0356386 C145.669091,76.6009695 145.466315,76.2277212 145.244675,75.8355741 C145.023035,75.443427 144.749523,74.9898594 144.494873,74.5740888 C144.240223,74.1583185 144.094035,73.8795633 143.881827,73.5441123 C143.860997,73.507665 143.837346,73.4729109 143.811091,73.4401695 C143.254634,72.5613822 142.674599,71.7109428 142.070984,70.8794019 C141.924797,70.6715169 141.764461,70.4778057 141.599411,70.2746451 C141.127837,69.6557142 140.656264,69.0462327 140.18469,68.4556497 C140.104523,68.3564316 140.033786,68.2477644 139.948903,68.1532713 C139.741411,67.9075887 139.524487,67.6808049 139.312279,67.4351223 C139.038766,67.1185698 138.765254,66.806742 138.482309,66.4901895 C138.199365,66.173637 137.836253,65.8098381 137.510867,65.4791115 C137.185482,65.1483852 136.935548,64.8885288 136.643172,64.6097736 C136.558289,64.5247296 136.478121,64.4349609 136.393238,64.3546416 C135.921664,63.9057987 135.450091,63.4664049 134.945507,63.0411852 L118.525314,52.694172 C119.105349,53.1949866 119.666522,53.7241488 120.222979,54.2580357 C120.515354,54.5415156 120.803014,54.8391693 121.085958,55.1273739 C121.368902,55.4155782 121.746161,55.7982762 122.066831,56.1431766 C122.387502,56.488077 122.618572,56.7621075 122.892085,57.0881091 C123.165598,57.414111 123.481552,57.7637361 123.769212,58.1133612 C124.253361,58.7055189 124.724935,59.310276 125.183933,59.9276319 C125.339552,60.1355172 125.499887,60.3292284 125.655507,60.5371137 C126.252833,61.3686543 126.831297,62.2206687 127.390898,63.0931566 C127.6314,63.4711296 127.862471,63.8632767 128.088827,64.2506991 C128.315182,64.6381215 128.588695,65.0680659 128.824481,65.4885609 C129.060268,65.9090559 129.258329,66.2964783 129.470537,66.7027995 C129.682745,67.1091204 129.942111,67.5579636 130.144888,67.9973574 C130.347664,68.4367509 130.531578,68.828898 130.724923,69.2446683 C130.918268,69.6604389 131.139908,70.1329053 131.337969,70.5864729 C131.53603,71.0400405 131.682218,71.4463617 131.851984,71.8810308 C132.021751,72.3156996 132.219811,72.7928907 132.389578,73.2559077 C132.559345,73.7189247 132.700817,74.2008405 132.861152,74.6449587 C133.021487,75.0890772 133.167674,75.528471 133.299715,75.9773139 C133.431756,76.4261571 133.563796,76.9222467 133.691121,77.3947131 C133.818446,77.8671792 133.945771,78.3018483 134.054233,78.7601406 C134.162695,79.2184332 134.261725,79.7050734 134.365472,80.1775398 C134.469218,80.6500062 134.568248,81.1224726 134.653131,81.5949387 C134.738015,82.0674051 134.808751,82.5398715 134.879487,83.0501352 C134.950223,83.5603989 135.035106,83.995068 135.091695,84.4675344 C135.195441,85.3132491 135.275609,86.1684132 135.336913,87.0235773 C135.336913,87.236187 135.336913,87.448797 135.369923,87.656682 C135.407649,88.3464831 135.431228,89.0315592 135.440659,89.72136 C135.440659,89.9717673 135.440659,90.2221743 135.440659,90.4725816 C135.440659,91.3560936 135.440659,92.2396056 135.365208,93.1278426 C135.299187,94.2428631 135.18601,95.3484342 135.058685,96.4351068 C134.96437,97.2666477 134.846476,98.0981886 134.70972,98.9202798 C134.667279,99.1943103 134.605974,99.4683408 134.558817,99.7423713 C134.459786,100.285708 134.365472,100.833769 134.247578,101.37238 C134.195705,101.627512 134.129685,101.877919 134.06838,102.137776 C133.941055,102.70946 133.804299,103.285869 133.658111,103.857553 C133.573228,104.174106 133.478913,104.485934 133.389314,104.802486 C133.247842,105.3033 133.10637,105.804115 132.946035,106.300205 C132.828142,106.673453 132.700817,107.046701 132.573492,107.41995 C132.446167,107.793198 132.314126,108.185345 132.17737,108.563318 C132.040614,108.941291 131.894426,109.309815 131.748238,109.683063 C131.60205,110.056312 131.455862,110.42956 131.300243,110.802809 C131.21536,111.005969 131.125761,111.204405 131.036162,111.407566 C130.493852,112.669051 129.909101,113.911637 129.272476,115.121151 C129.20174,115.253442 129.126289,115.381008 129.055553,115.508573 C128.398493,116.736986 127.698992,117.937051 126.95705,119.108767 L126.777852,119.368624 C125.985608,120.597036 125.147779,121.787651 124.264365,122.940469 C124.212491,123.011339 124.155903,123.077485 124.104029,123.14363 C123.160882,124.362593 122.167434,125.537459 121.123684,126.668229 C120.944486,126.86194 120.760573,127.050926 120.581374,127.239913 C120.185253,127.660408 119.784415,128.071454 119.374146,128.477775 L118.671501,129.158126 C118.275379,129.531375 117.874542,129.904623 117.468989,130.268422 L116.789923,130.873179 C116.030689,131.529908 115.262024,132.172462 114.474496,132.763045 C114.446202,132.786668 114.417908,132.800842 114.394329,132.824465 C113.625664,133.415048 112.838136,133.977283 112.036461,134.525344 L111.39512,134.955289 C110.494415,135.555321 109.584278,136.136454 108.650562,136.675066 L108.532669,136.741211 C107.627247,137.260924 106.707679,137.747565 105.769247,138.215306 L105.118476,138.536584 C104.175329,139.00905 103.189739,139.429545 102.204151,139.831141 L101.732577,140.010679 C100.841303,140.360304 99.9358815,140.681581 99.0257445,140.983959 L98.4126987,141.18712 C97.3988154,141.503672 96.370785,141.787152 95.3380386,142.037559 L94.6825515,142.188749 C93.739404,142.406083 92.778966,142.595069 91.8012366,142.755708 C91.650333,142.755708 91.5041451,142.812404 91.3579575,142.831303 C90.2922009,143.001391 89.2122975,143.124232 88.1323938,143.214 C87.8840316,143.236049 87.6340977,143.254948 87.3825918,143.270696 C86.2743936,143.351016 85.16148,143.402987 84.0391347,143.402987 L0,143.402987 L16.4201934,153.75 L100.445181,153.75 C101.567526,153.75 102.68044,153.698029 103.788638,153.617709 C104.043288,153.617709 104.288506,153.584637 104.53844,153.561014 C105.623059,153.471245 106.702963,153.348404 107.768719,153.183041 L108.207283,153.102721 C109.178725,152.942083 110.136019,152.753096 111.093313,152.535761 L111.744085,152.384572 C112.781547,152.13259 113.808005,151.84911 114.823461,151.534133 L115.431791,151.330972 C116.346643,151.034894 117.250493,150.710467 118.143339,150.357691 L118.614913,150.178154 C119.600501,149.776558 120.571943,149.341889 121.529238,148.883597 L122.180009,148.56232 C123.123156,148.089853 124.038009,147.617387 124.943431,147.088224 L125.061324,147.022079 C126.004471,146.483468 126.905177,145.902334 127.805882,145.302301 C127.914344,145.231432 128.027522,145.170011 128.131268,145.099141 C128.235014,145.028271 128.338761,144.947952 128.442507,144.877082 C129.244182,144.324296 130.03171,143.762061 130.800375,143.166754 L130.875827,143.114783 C131.66807,142.500576 132.436735,141.858022 133.195969,141.201294 C133.285568,141.120974 133.379883,141.050105 133.469482,140.97451 L133.870319,140.601261 C134.280588,140.232738 134.681426,139.859489 135.077548,139.481516 C135.313334,139.259457 135.549121,139.037398 135.775477,138.805889 C136.190461,138.399568 136.591299,137.983798 136.987421,137.563303 C137.133609,137.412114 137.289228,137.260924 137.458994,137.090836 C137.492005,137.057764 137.520299,137.015242 137.553309,136.982169 C138.593915,135.84825 139.587363,134.671809 140.533654,133.452846 L140.646832,133.32528 L140.689274,133.259134 C141.575832,132.106316 142.415233,130.896803 143.207477,129.687289 L143.334802,129.507752 C143.352305,129.480434 143.368056,129.452029 143.381959,129.422708 C144.131761,128.255716 144.82969,127.060376 145.485178,125.827239 C145.532335,125.73747 145.588924,125.657151 145.631365,125.572107 C145.673807,125.487063 145.673807,125.477614 145.697386,125.435092 C146.32615,124.219278 146.915617,122.979841 147.465787,121.716781 C147.512944,121.617563 147.564817,121.527795 147.607259,121.423852 C147.6497,121.31991 147.687426,121.220692 147.729868,121.121474 C147.885487,120.743501 148.031675,120.365528 148.201441,119.987555 C148.371208,119.609581 148.489101,119.255232 148.625858,118.881983 C148.762614,118.508735 148.894655,118.111863 149.026695,117.724441 C149.116294,117.45041 149.22004,117.181104 149.309639,116.907074 L149.394523,116.61887 C149.550142,116.12278 149.69633,115.617241 149.837802,115.116427 C149.927401,114.804599 150.021716,114.492771 150.101883,114.171494 C150.252787,113.59981 150.389543,113.018676 150.521584,112.437542 C150.568741,112.215483 150.630046,111.998149 150.681919,111.77609 L150.681919,111.686321 C150.799812,111.142985 150.894127,110.594924 150.993157,110.046863 C151.040315,109.772832 151.101619,109.508251 151.144061,109.23422 C151.280817,108.412129 151.393995,107.585313 151.493025,106.749047 C151.563761,106.111218 151.634498,105.478113 151.691086,104.835559 C151.733528,104.363092 151.771254,103.890626 151.799548,103.41816 C151.851421,102.529923 151.870284,101.646411 151.875,100.767623 C151.846706,100.578637 151.846706,100.32823 151.846706,100.077823 Z" id="路径" fill="url(#linearGradient-1)"></path>
                    </g>
                    <path d="M93.258399,0 C117.195476,0 130.342949,26.2218825 118.011298,48.2151912 L106.132359,69.3911331 L103.585861,73.5110397 C103.93011,73.9409841 110.43311,82.1477244 110.763212,93.3546264 L62.9220681,93.3546264 L95.5172367,34.4380722 C98.7380844,28.6409102 95.0739576,21.7429015 88.7737338,21.7429015 L65.2233474,21.7429015 L70.8067791,0 L93.258399,0 Z" id="路径" fill="#F4D78B"></path>
                    <path d="M118.530029,52.7177955 C129.116857,61.8978168 136.313071,77.2860456 135.365208,93.1372917 C135.299187,94.2523125 135.18601,95.3578836 135.058685,96.4445562 C132.054761,122.619192 109.739897,143.42661 84.0438504,143.42661 L0,143.42661 L42.4038999,0 L66.3126825,0 L53.5801947,43.3109904 L86.9345967,43.3109904 L74.381307,65.9893752 L46.8979965,65.9893752 L30.8644935,120.526166 L85.3312464,120.526166 C99.9264501,120.526166 112.555192,108.242041 113.460613,93.1231179 C113.885029,86.0644704 111.065019,77.9333247 107.108516,73.0810953 L118.530029,52.7177955 Z" id="路径" fill="#F4D78B"></path>
                </g>
            </g>
        </g>
    </g>
</svg>