<?xml version="1.0" standalone="no"?>
<!DOCTYPE svg PUBLIC "-//W3C//DTD SVG 20010904//EN"
 "http://www.w3.org/TR/2001/REC-SVG-20010904/DTD/svg10.dtd">
<svg version="1.0" xmlns="http://www.w3.org/2000/svg"
 width="225.000000pt" height="225.000000pt" viewBox="0 0 225.000000 225.000000"
 preserveAspectRatio="xMidYMid meet">

<g transform="translate(0.000000,225.000000) scale(0.100000,-0.100000)"
fill="#000000" stroke="none">
<path d="M0 1125 l0 -1125 1125 0 1125 0 0 1125 0 1125 -1125 0 -1125 0 0
-1125z m1085 545 l0 -195 -170 -3 c-93 -1 -180 0 -192 3 -23 5 -23 7 -23 194
0 103 3 191 7 195 4 3 90 5 192 4 l186 -3 0 -195z m-3 -293 c10 -11 12 -53 8
-198 l-5 -184 -190 0 -190 0 -3 189 c-2 145 1 191 10 198 7 4 90 8 185 8 129
0 175 -3 185 -13z m483 3 c5 -8 7 -154 5 -358 l0 -32 -192 2 -193 3 -3 189
c-2 145 1 191 10 198 19 11 366 10 373 -2z m-477 -672 l-3 -193 -190 0 -190 0
-3 180 c-1 98 0 185 2 192 4 10 50 13 196 13 l190 0 -2 -192z m482 -3 l0 -195
-192 2 -193 3 -3 180 c-1 98 0 185 2 192 4 10 50 13 196 13 l190 0 0 -195z"/>
</g>
</svg>
