<svg width="437" height="437" viewBox="0 0 437 437" fill="none" xmlns="http://www.w3.org/2000/svg">
<circle opacity="0.15" cx="218.482" cy="218.482" r="126.313" fill="white"/>
<g filter="url(#filter0_d_4744_1486)">
<path d="M86.5115 194.17C83.7959 193.669 81.1789 195.465 80.776 198.197C75.6516 232.94 83.8494 268.412 103.838 297.438C124.773 327.839 156.928 348.678 193.228 355.372C229.529 362.065 267.002 354.064 297.403 333.128C326.429 313.14 346.738 282.925 354.342 248.638C354.94 245.943 353.135 243.332 350.42 242.831L218.466 218.501L86.5115 194.17Z" fill="url(#paint0_linear_4744_1486)"/>
<path d="M86.5115 194.17C83.7959 193.669 81.1789 195.465 80.776 198.197C75.6516 232.94 83.8494 268.412 103.838 297.438C124.773 327.839 156.928 348.678 193.228 355.372C229.529 362.065 267.002 354.064 297.403 333.128C326.429 313.14 346.738 282.925 354.342 248.638C354.94 245.943 353.135 243.332 350.42 242.831L218.466 218.501L86.5115 194.17Z" fill="#00ECBC"/>
</g>
<g filter="url(#filter1_d_4744_1486)">
<path d="M99.7646 299.627C97.4848 301.185 96.8935 304.303 98.5274 306.529C120.812 336.893 153.836 357.73 190.973 364.713C229.751 372.004 269.838 363.592 302.414 341.327C334.99 319.063 357.387 284.769 364.678 245.991C371.661 208.854 364.241 170.517 344.045 138.726C342.564 136.395 339.444 135.813 337.164 137.372L218.465 218.499L99.7646 299.627Z" fill="url(#paint1_linear_4744_1486)"/>
<path d="M99.7646 299.627C97.4848 301.185 96.8935 304.303 98.5274 306.529C120.812 336.893 153.836 357.73 190.973 364.713C229.751 372.004 269.838 363.592 302.414 341.327C334.99 319.063 357.387 284.769 364.678 245.991C371.661 208.854 364.241 170.517 344.045 138.726C342.564 136.395 339.444 135.813 337.164 137.372L218.465 218.499L99.7646 299.627Z" fill="#007ADF"/>
</g>
<g filter="url(#filter2_d_4744_1486)">
<path d="M300.124 348.429C301.593 350.768 304.685 351.479 306.976 349.936C334.236 331.586 355.155 305.184 366.77 274.356C378.975 241.966 380.238 206.471 370.368 173.295C360.498 140.119 340.037 111.087 312.112 90.6362C285.534 71.1711 253.585 60.4981 220.727 60.033C217.966 59.9939 215.766 62.2794 215.814 65.0404L218.458 217.089C218.474 218.001 218.739 218.89 219.224 219.662L300.124 348.429Z" fill="url(#paint2_linear_4744_1486)"/>
<path d="M300.124 348.429C301.593 350.768 304.685 351.479 306.976 349.936C334.236 331.586 355.155 305.184 366.77 274.356C378.975 241.966 380.238 206.471 370.368 173.295C360.498 140.119 340.037 111.087 312.112 90.6362C285.534 71.1711 253.585 60.4981 220.727 60.033C217.966 59.9939 215.766 62.2794 215.814 65.0404L218.458 217.089C218.474 218.001 218.739 218.89 219.224 219.662L300.124 348.429Z" fill="#B09FFF"/>
</g>
<g filter="url(#filter3_d_4744_1486)">
<circle cx="218.482" cy="218.482" r="90.7156" fill="white"/>
</g>
<circle cx="217.911" cy="218.175" r="76.8809" transform="rotate(165 217.911 218.175)" stroke="url(#paint3_linear_4744_1486)" stroke-width="7"/>
<path d="M188.611 205L184.011 187.865H187.369L190.98 202.47H190.106L193.878 187.865H197.121L200.87 202.47H199.996L203.607 187.865H206.965L202.365 205H198.777L194.982 190.786H195.994L192.199 205H188.611ZM208.864 205V187.865H216.086C217.22 187.865 218.186 188.064 218.984 188.463C219.796 188.846 220.417 189.398 220.847 190.119C221.291 190.824 221.514 191.683 221.514 192.695C221.514 193.477 221.299 194.213 220.87 194.903C220.456 195.578 219.789 196.137 218.869 196.582V195.133C219.712 195.455 220.379 195.854 220.87 196.329C221.36 196.804 221.705 197.333 221.905 197.916C222.104 198.499 222.204 199.112 222.204 199.756C222.204 201.397 221.659 202.685 220.571 203.62C219.497 204.54 218.002 205 216.086 205H208.864ZM211.992 202.24H216.408C217.22 202.24 217.864 202.018 218.34 201.573C218.83 201.113 219.076 200.507 219.076 199.756C219.076 199.005 218.83 198.399 218.34 197.939C217.864 197.479 217.22 197.249 216.408 197.249H211.992V202.24ZM211.992 194.512H216.247C216.891 194.512 217.404 194.328 217.788 193.96C218.171 193.577 218.363 193.086 218.363 192.488C218.363 191.89 218.171 191.415 217.788 191.062C217.404 190.709 216.891 190.533 216.247 190.533H211.992V194.512ZM227.353 205V190.625H222.914V187.865H234.874V190.625H230.504V205H227.353ZM244.136 205.276C242.91 205.276 241.775 205.054 240.732 204.609C239.705 204.164 238.8 203.543 238.018 202.746C237.252 201.949 236.654 201.013 236.224 199.94C235.795 198.867 235.58 197.694 235.58 196.421C235.58 195.148 235.787 193.975 236.201 192.902C236.631 191.813 237.229 190.878 237.995 190.096C238.777 189.299 239.69 188.685 240.732 188.256C241.775 187.811 242.91 187.589 244.136 187.589C245.363 187.589 246.459 187.796 247.425 188.21C248.407 188.624 249.235 189.176 249.909 189.866C250.584 190.541 251.067 191.284 251.358 192.097L248.552 193.408C248.23 192.549 247.686 191.844 246.919 191.292C246.153 190.725 245.225 190.441 244.136 190.441C243.063 190.441 242.112 190.694 241.284 191.2C240.472 191.706 239.835 192.404 239.375 193.293C238.931 194.182 238.708 195.225 238.708 196.421C238.708 197.617 238.931 198.667 239.375 199.572C239.835 200.461 240.472 201.159 241.284 201.665C242.112 202.171 243.063 202.424 244.136 202.424C245.225 202.424 246.153 202.148 246.919 201.596C247.686 201.029 248.23 200.316 248.552 199.457L251.358 200.768C251.067 201.581 250.584 202.332 249.909 203.022C249.235 203.697 248.407 204.241 247.425 204.655C246.459 205.069 245.363 205.276 244.136 205.276Z" fill="#1E1E1E"/>
<path d="M209.614 230.276C208.709 230.276 207.843 230.107 207.015 229.77C206.202 229.433 205.497 228.957 204.899 228.344C204.316 227.715 203.917 226.972 203.703 226.113L206.417 225.147C206.677 225.929 207.099 226.512 207.682 226.895C208.264 227.263 208.908 227.447 209.614 227.447C210.196 227.447 210.71 227.324 211.155 227.079C211.615 226.818 211.967 226.466 212.213 226.021C212.458 225.561 212.581 225.032 212.581 224.434C212.581 223.836 212.45 223.315 212.19 222.87C211.944 222.425 211.599 222.08 211.155 221.835C210.71 221.574 210.196 221.444 209.614 221.444C209.016 221.444 208.471 221.574 207.981 221.835C207.505 222.096 207.16 222.471 206.946 222.962L204.393 222.387L205.75 212.865H215.088V215.51H206.992L208.165 214.153L207.199 221.329L206.302 220.593C206.731 219.964 207.252 219.504 207.866 219.213C208.494 218.922 209.253 218.776 210.143 218.776C211.277 218.776 212.259 219.021 213.087 219.512C213.93 220.003 214.582 220.67 215.042 221.513C215.502 222.356 215.732 223.33 215.732 224.434C215.732 225.538 215.463 226.535 214.927 227.424C214.39 228.313 213.662 229.011 212.742 229.517C211.822 230.023 210.779 230.276 209.614 230.276ZM225.075 230.276C223.71 230.276 222.514 229.908 221.487 229.172C220.46 228.436 219.655 227.401 219.072 226.067C218.505 224.733 218.221 223.184 218.221 221.421C218.221 219.642 218.505 218.094 219.072 216.775C219.639 215.456 220.437 214.429 221.464 213.693C222.491 212.957 223.687 212.589 225.052 212.589C226.447 212.589 227.651 212.957 228.663 213.693C229.69 214.429 230.495 215.464 231.078 216.798C231.661 218.117 231.952 219.658 231.952 221.421C231.952 223.184 231.661 224.733 231.078 226.067C230.511 227.386 229.713 228.421 228.686 229.172C227.659 229.908 226.455 230.276 225.075 230.276ZM225.098 227.424C225.88 227.424 226.547 227.186 227.099 226.711C227.651 226.22 228.073 225.53 228.364 224.641C228.671 223.736 228.824 222.663 228.824 221.421C228.824 220.179 228.671 219.113 228.364 218.224C228.073 217.319 227.643 216.629 227.076 216.154C226.524 215.679 225.849 215.441 225.052 215.441C224.285 215.441 223.626 215.679 223.074 216.154C222.522 216.629 222.093 217.319 221.786 218.224C221.495 219.113 221.349 220.179 221.349 221.421C221.349 222.648 221.495 223.713 221.786 224.618C222.093 225.507 222.522 226.197 223.074 226.688C223.641 227.179 224.316 227.424 225.098 227.424Z" fill="#1E1E1E"/>
<path opacity="0.8" d="M203.195 254V244.175H200.165V242.825H207.665V244.175H204.68V254H203.195ZM211.702 254.18C210.922 254.18 210.217 254 209.587 253.64C208.957 253.27 208.457 252.765 208.087 252.125C207.717 251.485 207.532 250.76 207.532 249.95C207.532 249.14 207.712 248.42 208.072 247.79C208.442 247.16 208.942 246.66 209.572 246.29C210.202 245.92 210.912 245.735 211.702 245.735C212.482 245.735 213.187 245.92 213.817 246.29C214.447 246.65 214.942 247.145 215.302 247.775C215.672 248.405 215.857 249.13 215.857 249.95C215.857 250.77 215.667 251.5 215.287 252.14C214.907 252.77 214.402 253.27 213.772 253.64C213.152 254 212.462 254.18 211.702 254.18ZM211.702 252.83C212.202 252.83 212.652 252.705 213.052 252.455C213.462 252.205 213.782 251.86 214.012 251.42C214.252 250.98 214.372 250.49 214.372 249.95C214.372 249.4 214.252 248.915 214.012 248.495C213.782 248.065 213.462 247.725 213.052 247.475C212.652 247.215 212.202 247.085 211.702 247.085C211.192 247.085 210.732 247.215 210.322 247.475C209.922 247.725 209.602 248.065 209.362 248.495C209.122 248.915 209.002 249.4 209.002 249.95C209.002 250.49 209.122 250.98 209.362 251.42C209.602 251.86 209.922 252.205 210.322 252.455C210.732 252.705 211.192 252.83 211.702 252.83ZM220.815 254.09C220.025 254.09 219.415 253.865 218.985 253.415C218.565 252.965 218.355 252.33 218.355 251.51V247.25H216.885V245.915H217.185C217.545 245.915 217.83 245.805 218.04 245.585C218.25 245.365 218.355 245.075 218.355 244.715V244.055H219.75V245.915H221.565V247.25H219.75V251.465C219.75 251.735 219.79 251.97 219.87 252.17C219.96 252.37 220.105 252.53 220.305 252.65C220.505 252.76 220.77 252.815 221.1 252.815C221.17 252.815 221.255 252.81 221.355 252.8C221.465 252.79 221.565 252.78 221.655 252.77V254C221.525 254.03 221.38 254.05 221.22 254.06C221.06 254.08 220.925 254.09 220.815 254.09ZM225.745 254.18C225.215 254.18 224.745 254.085 224.335 253.895C223.935 253.695 223.62 253.425 223.39 253.085C223.16 252.735 223.045 252.335 223.045 251.885C223.045 251.455 223.135 251.07 223.315 250.73C223.505 250.38 223.795 250.085 224.185 249.845C224.585 249.605 225.085 249.435 225.685 249.335L228.685 248.84V250.01L226 250.46C225.48 250.55 225.1 250.715 224.86 250.955C224.63 251.195 224.515 251.49 224.515 251.84C224.515 252.17 224.645 252.445 224.905 252.665C225.175 252.885 225.51 252.995 225.91 252.995C226.42 252.995 226.86 252.89 227.23 252.68C227.61 252.46 227.905 252.165 228.115 251.795C228.335 251.425 228.445 251.015 228.445 250.565V248.51C228.445 248.07 228.28 247.715 227.95 247.445C227.63 247.165 227.205 247.025 226.675 247.025C226.215 247.025 225.805 247.145 225.445 247.385C225.095 247.615 224.835 247.925 224.665 248.315L223.45 247.685C223.6 247.315 223.84 246.985 224.17 246.695C224.5 246.395 224.885 246.16 225.325 245.99C225.765 245.82 226.225 245.735 226.705 245.735C227.325 245.735 227.87 245.855 228.34 246.095C228.81 246.325 229.175 246.65 229.435 247.07C229.705 247.48 229.84 247.96 229.84 248.51V254H228.475V252.47L228.73 252.56C228.56 252.88 228.33 253.16 228.04 253.4C227.75 253.64 227.41 253.83 227.02 253.97C226.63 254.11 226.205 254.18 225.745 254.18ZM232.003 254V242.645H233.398V254H232.003Z" fill="#1E265E"/>
<defs>
<filter id="filter0_d_4744_1486" x="59.2866" y="169.086" width="315.17" height="203.593" filterUnits="userSpaceOnUse" color-interpolation-filters="sRGB">
<feFlood flood-opacity="0" result="BackgroundImageFix"/>
<feColorMatrix in="SourceAlpha" type="matrix" values="0 0 0 0 0 0 0 0 0 0 0 0 0 0 0 0 0 0 127 0" result="hardAlpha"/>
<feOffset dy="-5"/>
<feGaussianBlur stdDeviation="10"/>
<feColorMatrix type="matrix" values="0 0 0 0 0 0 0 0 0 0 0 0 0 0 0 0 0 0 0.12 0"/>
<feBlend mode="normal" in2="BackgroundImageFix" result="effect1_dropShadow_4744_1486"/>
<feBlend mode="normal" in="SourceGraphic" in2="effect1_dropShadow_4744_1486" result="shape"/>
</filter>
<filter id="filter1_d_4744_1486" x="77.5991" y="111.501" width="309.642" height="270.774" filterUnits="userSpaceOnUse" color-interpolation-filters="sRGB">
<feFlood flood-opacity="0" result="BackgroundImageFix"/>
<feColorMatrix in="SourceAlpha" type="matrix" values="0 0 0 0 0 0 0 0 0 0 0 0 0 0 0 0 0 0 127 0" result="hardAlpha"/>
<feOffset dy="-5"/>
<feGaussianBlur stdDeviation="10"/>
<feColorMatrix type="matrix" values="0 0 0 0 0 0 0 0 0 0 0 0 0 0 0 0 0 0 0.12 0"/>
<feBlend mode="normal" in2="BackgroundImageFix" result="effect1_dropShadow_4744_1486"/>
<feBlend mode="normal" in="SourceGraphic" in2="effect1_dropShadow_4744_1486" result="shape"/>
</filter>
<filter id="filter2_d_4744_1486" x="195.813" y="35.0327" width="201.135" height="330.723" filterUnits="userSpaceOnUse" color-interpolation-filters="sRGB">
<feFlood flood-opacity="0" result="BackgroundImageFix"/>
<feColorMatrix in="SourceAlpha" type="matrix" values="0 0 0 0 0 0 0 0 0 0 0 0 0 0 0 0 0 0 127 0" result="hardAlpha"/>
<feOffset dy="-5"/>
<feGaussianBlur stdDeviation="10"/>
<feColorMatrix type="matrix" values="0 0 0 0 0 0 0 0 0 0 0 0 0 0 0 0 0 0 0.12 0"/>
<feBlend mode="normal" in2="BackgroundImageFix" result="effect1_dropShadow_4744_1486"/>
<feBlend mode="normal" in="SourceGraphic" in2="effect1_dropShadow_4744_1486" result="shape"/>
</filter>
<filter id="filter3_d_4744_1486" x="102.767" y="107.767" width="231.431" height="231.431" filterUnits="userSpaceOnUse" color-interpolation-filters="sRGB">
<feFlood flood-opacity="0" result="BackgroundImageFix"/>
<feColorMatrix in="SourceAlpha" type="matrix" values="0 0 0 0 0 0 0 0 0 0 0 0 0 0 0 0 0 0 127 0" result="hardAlpha"/>
<feOffset dy="5"/>
<feGaussianBlur stdDeviation="12.5"/>
<feColorMatrix type="matrix" values="0 0 0 0 0 0 0 0 0 0 0 0 0 0 0 0 0 0 0.1 0"/>
<feBlend mode="normal" in2="BackgroundImageFix" result="effect1_dropShadow_4744_1486"/>
<feBlend mode="normal" in="SourceGraphic" in2="effect1_dropShadow_4744_1486" result="shape"/>
</filter>
<linearGradient id="paint0_linear_4744_1486" x1="170.709" y1="349.229" x2="266.222" y2="87.7719" gradientUnits="userSpaceOnUse">
<stop stop-color="#99FFA3"/>
<stop offset="1" stop-color="#68EE76"/>
</linearGradient>
<linearGradient id="paint1_linear_4744_1486" x1="339.641" y1="304.815" x2="97.2877" y2="132.184" gradientUnits="userSpaceOnUse">
<stop stop-color="#FFD572"/>
<stop offset="1" stop-color="#FEBD38"/>
</linearGradient>
<linearGradient id="paint2_linear_4744_1486" x1="352.663" y1="134.181" x2="84.3016" y2="302.784" gradientUnits="userSpaceOnUse">
<stop stop-color="#B09FFF"/>
<stop offset="1" stop-color="#8D79F6"/>
</linearGradient>
<linearGradient id="paint3_linear_4744_1486" x1="169.109" y1="155.018" x2="263.269" y2="275.59" gradientUnits="userSpaceOnUse">
<stop stop-color="#00ECBC" stop-opacity="0"/>
<stop offset="0.514211" stop-color="#00ECBC" stop-opacity="0.29"/>
<stop offset="1" stop-color="#00ECBC" stop-opacity="0"/>
</linearGradient>
</defs>
</svg>
