<svg width="73" height="73" viewBox="0 0 73 73" fill="none" xmlns="http://www.w3.org/2000/svg">
<g opacity="0.66">
<path d="M0 24.3333H24.3333V48.6667H0V24.3333Z" fill="#D8D8D8" fill-opacity="0.01"/>
<path d="M24.3333 24.3333H48.6667V48.6667H24.3333V24.3333Z" fill="#D8D8D8" fill-opacity="0.01"/>
<path d="M48.6667 24.3333H73V48.6667H48.6667V24.3333Z" fill="#D8D8D8" fill-opacity="0.01"/>
<path d="M0 36.5H36.5V73H0V36.5Z" fill="#D8D8D8" fill-opacity="0.01"/>
<path d="M36.5 36.5H73V73H36.5V36.5Z" fill="#D8D8D8" fill-opacity="0.01"/>
<path d="M0 0H36.5V36.5H0V0Z" fill="#D8D8D8" fill-opacity="0.01"/>
<path d="M36.5 0H73V36.5H36.5V0Z" fill="#D8D8D8" fill-opacity="0.01"/>
<path d="M6.08333 18.25C6.08333 14.8903 8.80693 12.1667 12.1667 12.1667H60.8333C64.1931 12.1667 66.9167 14.8903 66.9167 18.25V54.75C66.9167 58.1097 64.1931 60.8333 60.8333 60.8333H12.1667C8.80694 60.8333 6.08333 58.1097 6.08333 54.75V18.25Z" fill="#D8D8D8" fill-opacity="0.01"/>
<path d="M12.1667 12.1667C12.1667 8.80693 14.8903 6.08333 18.25 6.08333H54.75C58.1097 6.08333 60.8333 8.80693 60.8333 12.1667V60.8333C60.8333 64.1931 58.1097 66.9167 54.75 66.9167H18.25C14.8903 66.9167 12.1667 64.1931 12.1667 60.8333L12.1667 12.1667Z" fill="#D8D8D8" fill-opacity="0.01"/>
<path d="M9.125 15.2083C9.125 11.8486 11.8486 9.125 15.2083 9.125H57.7917C61.1514 9.125 63.875 11.8486 63.875 15.2083V57.7917C63.875 61.1514 61.1514 63.875 57.7917 63.875H15.2083C11.8486 63.875 9.125 61.1514 9.125 57.7917V15.2083Z" fill="#D8D8D8" fill-opacity="0.01"/>
<path d="M48.6667 0H73V24.3333H48.6667V0Z" fill="#D8D8D8" fill-opacity="0.01"/>
<path d="M0 48.6667H24.3333V73H0V48.6667Z" fill="#D8D8D8" fill-opacity="0.01"/>
<path d="M24.3333 48.6667H48.6667V73H24.3333V48.6667Z" fill="#D8D8D8" fill-opacity="0.01"/>
<path d="M48.6667 48.6667H73V73H48.6667V48.6667Z" fill="#D8D8D8" fill-opacity="0.01"/>
<path fill-rule="evenodd" clip-rule="evenodd" d="M73 0L36.5 36.5L0 0H73Z" fill="#D8D8D8" fill-opacity="0.01"/>
<path fill-rule="evenodd" clip-rule="evenodd" d="M73 73L36.5 36.5L0 73H73Z" fill="#D8D8D8" fill-opacity="0.01"/>
<path d="M6.08333 36.5C6.08333 19.7013 19.7013 6.08333 36.5 6.08333C53.2987 6.08333 66.9167 19.7013 66.9167 36.5C66.9167 53.2987 53.2987 66.9167 36.5 66.9167C19.7013 66.9167 6.08333 53.2987 6.08333 36.5Z" fill="#D8D8D8" fill-opacity="0.01"/>
<path d="M21.2917 36.5C21.2917 28.1007 28.1007 21.2917 36.5 21.2917C44.8993 21.2917 51.7083 28.1007 51.7083 36.5C51.7083 44.8993 44.8993 51.7083 36.5 51.7083C28.1007 51.7083 21.2917 44.8993 21.2917 36.5Z" fill="#D8D8D8" fill-opacity="0.01"/>
<path d="M0 0H24.3333V24.3333H0V0Z" fill="#D8D8D8" fill-opacity="0.01"/>
<path d="M24.3333 0H48.6667V24.3333H24.3333V0Z" fill="#D8D8D8" fill-opacity="0.01"/>
<path d="M0 24.3333H24.3333M0 24.3333V48.6667M0 24.3333V0M24.3333 24.3333V48.6667M24.3333 24.3333H48.6667M24.3333 24.3333V0M24.3333 48.6667H0M24.3333 48.6667H48.6667M24.3333 48.6667V73M0 48.6667V73M48.6667 24.3333V48.6667M48.6667 24.3333H73M48.6667 24.3333V0M48.6667 48.6667H73M48.6667 48.6667V73M73 24.3333V48.6667M73 24.3333V0M73 48.6667V73M0 36.5H36.5M0 36.5V73M0 36.5V0M36.5 36.5V73M36.5 36.5H73M36.5 36.5V0M36.5 36.5L73 0M36.5 36.5L0 0M36.5 36.5L73 73M36.5 36.5L0 73M36.5 73H0M36.5 73H73M0 73H24.3333M0 73H73M73 36.5V73M73 36.5V0M73 73H48.6667M0 0H36.5M0 0H73M0 0H24.3333M36.5 0H73M73 0H48.6667M12.1667 60.8333H60.8333M12.1667 60.8333C8.80694 60.8333 6.08333 58.1097 6.08333 54.75V18.25C6.08333 14.8903 8.80693 12.1667 12.1667 12.1667M12.1667 60.8333L12.1667 12.1667M12.1667 60.8333C12.1667 64.1931 14.8903 66.9167 18.25 66.9167H54.75C58.1097 66.9167 60.8333 64.1931 60.8333 60.8333M60.8333 60.8333C64.1931 60.8333 66.9167 58.1097 66.9167 54.75V18.25C66.9167 14.8903 64.1931 12.1667 60.8333 12.1667M60.8333 60.8333V12.1667M60.8333 12.1667H12.1667M60.8333 12.1667C60.8333 8.80693 58.1097 6.08333 54.75 6.08333H18.25C14.8903 6.08333 12.1667 8.80693 12.1667 12.1667M48.6667 0H24.3333M24.3333 73H48.6667M15.2083 63.875H57.7917C61.1514 63.875 63.875 61.1514 63.875 57.7917V15.2083C63.875 11.8486 61.1514 9.125 57.7917 9.125H15.2083C11.8486 9.125 9.125 11.8486 9.125 15.2083V57.7917C9.125 61.1514 11.8486 63.875 15.2083 63.875ZM36.5 66.9167C19.7013 66.9167 6.08333 53.2987 6.08333 36.5C6.08333 19.7013 19.7013 6.08333 36.5 6.08333C53.2987 6.08333 66.9167 19.7013 66.9167 36.5C66.9167 53.2987 53.2987 66.9167 36.5 66.9167ZM36.5 51.7083C28.1007 51.7083 21.2917 44.8993 21.2917 36.5C21.2917 28.1007 28.1007 21.2917 36.5 21.2917C44.8993 21.2917 51.7083 28.1007 51.7083 36.5C51.7083 44.8993 44.8993 51.7083 36.5 51.7083Z" stroke="#00ECBC"/>
</g>
</svg>
