<svg width="24" height="28" viewBox="0 0 24 28" fill="none" xmlns="http://www.w3.org/2000/svg">
<path opacity="0.4" d="M10.0833 18.2332H3.50777C2.67555 18.2332 2 18.9915 2 19.9257C2 20.8586 2.67555 21.6182 3.50777 21.6182H10.0833C10.9155 21.6182 11.5911 20.8586 11.5911 19.9257C11.5911 18.9915 10.9155 18.2332 10.0833 18.2332Z" fill="white"/>
<path opacity="0.4" d="M22.0001 7.28796C22.0001 6.35501 21.3246 5.59668 20.4934 5.59668H13.9179C13.0857 5.59668 12.4102 6.35501 12.4102 7.28796C12.4102 8.22216 13.0857 8.9805 13.9179 8.9805H20.4934C21.3246 8.9805 22.0001 8.22216 22.0001 7.28796Z" fill="white"/>
<path d="M8.87774 7.288C8.87774 9.42082 7.33886 11.1495 5.43887 11.1495C3.53999 11.1495 2 9.42082 2 7.288C2 5.15644 3.53999 3.42773 5.43887 3.42773C7.33886 3.42773 8.87774 5.15644 8.87774 7.288Z" fill="white"/>
<path d="M22.0001 19.8801C22.0001 22.0116 20.4612 23.7403 18.5612 23.7403C16.6623 23.7403 15.1223 22.0116 15.1223 19.8801C15.1223 17.7473 16.6623 16.0186 18.5612 16.0186C20.4612 16.0186 22.0001 17.7473 22.0001 19.8801Z" fill="white"/>
</svg>
