<svg width="317" height="317" viewBox="0 0 317 317" fill="none" xmlns="http://www.w3.org/2000/svg">
<mask id="path-1-inside-1_103_711" fill="white">
<path d="M156.661 45.8678C137.789 46.1904 119.307 51.3177 102.937 60.7716C86.568 70.2255 72.8446 83.6981 63.0469 99.9332C53.2493 116.168 47.6966 134.637 46.9065 153.617C46.1164 172.598 50.1146 191.471 58.5284 208.478C66.9423 225.485 79.4976 240.072 95.0237 250.878C110.55 261.684 128.541 268.357 147.32 270.276C166.098 272.195 185.053 269.296 202.416 261.85C219.779 254.404 234.985 242.654 246.616 227.695L158.584 158.351L156.661 45.8678Z"/>
</mask>
<path d="M156.661 45.8678C137.789 46.1904 119.307 51.3177 102.937 60.7716C86.568 70.2255 72.8446 83.6981 63.0469 99.9332C53.2493 116.168 47.6966 134.637 46.9065 153.617C46.1164 172.598 50.1146 191.471 58.5284 208.478C66.9423 225.485 79.4976 240.072 95.0237 250.878C110.55 261.684 128.541 268.357 147.32 270.276C166.098 272.195 185.053 269.296 202.416 261.85C219.779 254.404 234.985 242.654 246.616 227.695L158.584 158.351L156.661 45.8678Z" fill="#19AB0C" stroke="white" stroke-width="4" mask="url(#path-1-inside-1_103_711)"/>
<mask id="path-2-inside-2_103_711" fill="white">
<path d="M270.327 155.237C269.979 140.468 266.725 125.911 260.751 112.399C254.777 98.8871 246.201 86.684 235.511 76.4866C224.821 66.2891 212.227 58.2971 198.448 52.9668C184.67 47.6365 169.976 45.0722 155.207 45.4205L157.859 157.889L270.327 155.237Z"/>
</mask>
<path d="M270.327 155.237C269.979 140.468 266.725 125.911 260.751 112.399C254.777 98.8871 246.201 86.684 235.511 76.4866C224.821 66.2891 212.227 58.2971 198.448 52.9668C184.67 47.6365 169.976 45.0722 155.207 45.4205L157.859 157.889L270.327 155.237Z" fill="#148AF6" stroke="white" stroke-width="4" mask="url(#path-2-inside-2_103_711)"/>
<mask id="path-3-inside-3_103_711" fill="white">
<path d="M245.183 228.173C262.057 207.212 270.912 180.95 270.142 154.152L158.179 158.25L245.183 228.173Z"/>
</mask>
<path d="M245.183 228.173C262.057 207.212 270.912 180.95 270.142 154.152L158.179 158.25L245.183 228.173Z" fill="#FF1010" stroke="white" stroke-width="4" mask="url(#path-3-inside-3_103_711)"/>
<path d="M92.6406 168.031C91.8299 168.031 91.1099 167.86 90.4806 167.519C89.8619 167.167 89.3766 166.698 89.0246 166.111C88.6726 165.514 88.4966 164.836 88.4966 164.079C88.4966 163.695 88.5339 163.311 88.6086 162.927C88.6939 162.543 88.8433 162.132 89.0566 161.695C89.2806 161.258 89.6006 160.772 90.0166 160.239L93.3446 155.919H95.9366L91.8886 161.119L91.5366 160.735C91.6859 160.618 91.8406 160.527 92.0006 160.463C92.1606 160.388 92.3206 160.335 92.4806 160.303C92.6513 160.271 92.8273 160.255 93.0086 160.255C93.7339 160.255 94.3793 160.42 94.9446 160.751C95.5099 161.082 95.9526 161.535 96.2726 162.111C96.6033 162.676 96.7686 163.316 96.7686 164.031C96.7686 164.799 96.5926 165.487 96.2406 166.095C95.8886 166.692 95.3979 167.167 94.7686 167.519C94.1499 167.86 93.4406 168.031 92.6406 168.031ZM92.6406 166.063C93.0033 166.063 93.3286 165.983 93.6166 165.823C93.9153 165.652 94.1499 165.412 94.3206 165.103C94.5019 164.794 94.5926 164.447 94.5926 164.063C94.5926 163.658 94.5019 163.311 94.3206 163.023C94.1499 162.724 93.9206 162.49 93.6326 162.319C93.3446 162.148 93.0139 162.063 92.6406 162.063C92.2779 162.063 91.9473 162.148 91.6486 162.319C91.3499 162.49 91.1099 162.724 90.9286 163.023C90.7579 163.311 90.6726 163.658 90.6726 164.063C90.6726 164.447 90.7579 164.794 90.9286 165.103C91.1099 165.412 91.3499 165.652 91.6486 165.823C91.9473 165.983 92.2779 166.063 92.6406 166.063ZM102.186 168.031C101.556 168.031 100.954 167.914 100.378 167.679C99.8123 167.444 99.3216 167.114 98.9056 166.687C98.5003 166.25 98.2229 165.732 98.0736 165.135L99.9616 164.463C100.143 165.007 100.436 165.412 100.842 165.679C101.247 165.935 101.695 166.063 102.186 166.063C102.591 166.063 102.948 165.978 103.258 165.807C103.578 165.626 103.823 165.38 103.994 165.071C104.164 164.751 104.25 164.383 104.25 163.967C104.25 163.551 104.159 163.188 103.978 162.879C103.807 162.57 103.567 162.33 103.258 162.159C102.948 161.978 102.591 161.887 102.186 161.887C101.77 161.887 101.391 161.978 101.05 162.159C100.719 162.34 100.479 162.602 100.33 162.943L98.5536 162.543L99.4976 155.919H105.994V157.759H100.362L101.178 156.815L100.506 161.807L99.8816 161.295C100.18 160.858 100.543 160.538 100.97 160.335C101.407 160.132 101.935 160.031 102.554 160.031C103.343 160.031 104.026 160.202 104.602 160.543C105.188 160.884 105.642 161.348 105.962 161.935C106.282 162.522 106.442 163.199 106.442 163.967C106.442 164.735 106.255 165.428 105.882 166.047C105.508 166.666 105.002 167.151 104.362 167.503C103.722 167.855 102.996 168.031 102.186 168.031ZM109.725 167.839L119.389 155.919H121.629L111.965 167.839H109.725ZM111.581 161.967C110.995 161.967 110.461 161.828 109.981 161.551C109.512 161.263 109.139 160.884 108.861 160.415C108.584 159.946 108.445 159.423 108.445 158.847C108.445 158.271 108.584 157.748 108.861 157.279C109.139 156.799 109.512 156.42 109.981 156.143C110.461 155.866 110.995 155.727 111.581 155.727C112.179 155.727 112.712 155.866 113.181 156.143C113.651 156.42 114.024 156.799 114.301 157.279C114.579 157.748 114.717 158.271 114.717 158.847C114.717 159.423 114.579 159.946 114.301 160.415C114.024 160.884 113.651 161.263 113.181 161.551C112.712 161.828 112.179 161.967 111.581 161.967ZM111.581 160.351C111.901 160.351 112.168 160.282 112.381 160.143C112.595 159.994 112.755 159.807 112.861 159.583C112.979 159.348 113.037 159.103 113.037 158.847C113.037 158.58 112.979 158.335 112.861 158.111C112.755 157.887 112.595 157.7 112.381 157.551C112.168 157.402 111.901 157.327 111.581 157.327C111.283 157.327 111.021 157.402 110.797 157.551C110.584 157.7 110.419 157.892 110.301 158.127C110.184 158.351 110.125 158.591 110.125 158.847C110.125 159.092 110.184 159.332 110.301 159.567C110.419 159.802 110.584 159.994 110.797 160.143C111.021 160.282 111.283 160.351 111.581 160.351ZM119.709 168.031C119.123 168.031 118.589 167.892 118.109 167.615C117.64 167.327 117.267 166.948 116.989 166.479C116.712 166.01 116.573 165.487 116.573 164.911C116.573 164.335 116.712 163.812 116.989 163.343C117.267 162.863 117.64 162.484 118.109 162.207C118.589 161.93 119.123 161.791 119.709 161.791C120.307 161.791 120.84 161.93 121.309 162.207C121.779 162.484 122.152 162.863 122.429 163.343C122.707 163.812 122.845 164.335 122.845 164.911C122.845 165.487 122.707 166.01 122.429 166.479C122.152 166.948 121.779 167.327 121.309 167.615C120.84 167.892 120.307 168.031 119.709 168.031ZM119.709 166.415C120.019 166.415 120.28 166.346 120.493 166.207C120.717 166.058 120.883 165.871 120.989 165.647C121.107 165.412 121.165 165.167 121.165 164.911C121.165 164.644 121.107 164.399 120.989 164.175C120.883 163.951 120.717 163.764 120.493 163.615C120.28 163.466 120.019 163.391 119.709 163.391C119.411 163.391 119.149 163.466 118.925 163.615C118.712 163.764 118.547 163.956 118.429 164.191C118.312 164.415 118.253 164.655 118.253 164.911C118.253 165.156 118.312 165.396 118.429 165.631C118.547 165.866 118.712 166.058 118.925 166.207C119.149 166.346 119.411 166.415 119.709 166.415Z" fill="white"/>
<path d="M186.545 116.839V115.191L189.777 111.815C190.417 111.143 190.907 110.61 191.249 110.215C191.601 109.81 191.846 109.463 191.985 109.175C192.123 108.887 192.193 108.594 192.193 108.295C192.193 107.794 192.033 107.399 191.713 107.111C191.403 106.823 191.003 106.679 190.513 106.679C190.001 106.679 189.558 106.828 189.185 107.127C188.811 107.415 188.539 107.842 188.369 108.407L186.465 107.815C186.593 107.186 186.854 106.642 187.249 106.183C187.643 105.714 188.123 105.356 188.689 105.111C189.265 104.855 189.873 104.727 190.513 104.727C191.281 104.727 191.953 104.866 192.529 105.143C193.115 105.42 193.569 105.81 193.889 106.311C194.219 106.812 194.385 107.399 194.385 108.071C194.385 108.498 194.305 108.919 194.145 109.335C193.985 109.751 193.745 110.178 193.425 110.615C193.105 111.042 192.689 111.522 192.177 112.055L189.377 114.999H194.545V116.839H186.545ZM201.019 117.031C200.07 117.031 199.238 116.775 198.523 116.263C197.809 115.751 197.249 115.031 196.843 114.103C196.449 113.175 196.251 112.098 196.251 110.871C196.251 109.634 196.449 108.556 196.843 107.639C197.238 106.722 197.793 106.007 198.507 105.495C199.222 104.983 200.054 104.727 201.003 104.727C201.974 104.727 202.811 104.983 203.515 105.495C204.23 106.007 204.79 106.727 205.195 107.655C205.601 108.572 205.803 109.644 205.803 110.871C205.803 112.098 205.601 113.175 205.195 114.103C204.801 115.02 204.246 115.74 203.531 116.263C202.817 116.775 201.979 117.031 201.019 117.031ZM201.035 115.047C201.579 115.047 202.043 114.882 202.427 114.551C202.811 114.21 203.105 113.73 203.307 113.111C203.521 112.482 203.627 111.735 203.627 110.871C203.627 110.007 203.521 109.266 203.307 108.647C203.105 108.018 202.806 107.538 202.411 107.207C202.027 106.876 201.558 106.711 201.003 106.711C200.47 106.711 200.011 106.876 199.627 107.207C199.243 107.538 198.945 108.018 198.731 108.647C198.529 109.266 198.427 110.007 198.427 110.871C198.427 111.724 198.529 112.466 198.731 113.095C198.945 113.714 199.243 114.194 199.627 114.535C200.022 114.876 200.491 115.047 201.035 115.047ZM209.132 116.839L218.796 104.919H221.036L211.372 116.839H209.132ZM210.988 110.967C210.401 110.967 209.868 110.828 209.388 110.551C208.918 110.263 208.545 109.884 208.268 109.415C207.99 108.946 207.852 108.423 207.852 107.847C207.852 107.271 207.99 106.748 208.268 106.279C208.545 105.799 208.918 105.42 209.388 105.143C209.868 104.866 210.401 104.727 210.988 104.727C211.585 104.727 212.118 104.866 212.588 105.143C213.057 105.42 213.43 105.799 213.708 106.279C213.985 106.748 214.124 107.271 214.124 107.847C214.124 108.423 213.985 108.946 213.708 109.415C213.43 109.884 213.057 110.263 212.588 110.551C212.118 110.828 211.585 110.967 210.988 110.967ZM210.988 109.351C211.308 109.351 211.574 109.282 211.788 109.143C212.001 108.994 212.161 108.807 212.268 108.583C212.385 108.348 212.444 108.103 212.444 107.847C212.444 107.58 212.385 107.335 212.268 107.111C212.161 106.887 212.001 106.7 211.788 106.551C211.574 106.402 211.308 106.327 210.988 106.327C210.689 106.327 210.428 106.402 210.204 106.551C209.99 106.7 209.825 106.892 209.708 107.127C209.59 107.351 209.532 107.591 209.532 107.847C209.532 108.092 209.59 108.332 209.708 108.567C209.825 108.802 209.99 108.994 210.204 109.143C210.428 109.282 210.689 109.351 210.988 109.351ZM219.116 117.031C218.529 117.031 217.996 116.892 217.516 116.615C217.046 116.327 216.673 115.948 216.396 115.479C216.118 115.01 215.98 114.487 215.98 113.911C215.98 113.335 216.118 112.812 216.396 112.343C216.673 111.863 217.046 111.484 217.516 111.207C217.996 110.93 218.529 110.791 219.116 110.791C219.713 110.791 220.246 110.93 220.716 111.207C221.185 111.484 221.558 111.863 221.836 112.343C222.113 112.812 222.252 113.335 222.252 113.911C222.252 114.487 222.113 115.01 221.836 115.479C221.558 115.948 221.185 116.327 220.716 116.615C220.246 116.892 219.713 117.031 219.116 117.031ZM219.116 115.415C219.425 115.415 219.686 115.346 219.9 115.207C220.124 115.058 220.289 114.871 220.396 114.647C220.513 114.412 220.572 114.167 220.572 113.911C220.572 113.644 220.513 113.399 220.396 113.175C220.289 112.951 220.124 112.764 219.9 112.615C219.686 112.466 219.425 112.391 219.116 112.391C218.817 112.391 218.556 112.466 218.332 112.615C218.118 112.764 217.953 112.956 217.836 113.191C217.718 113.415 217.66 113.655 217.66 113.911C217.66 114.156 217.718 114.396 217.836 114.631C217.953 114.866 218.118 115.058 218.332 115.207C218.556 115.346 218.817 115.415 219.116 115.415Z" fill="white"/>
<path d="M218.577 187.839V177.775H216.273V175.919H220.753V187.839H218.577ZM227.014 188.031C226.384 188.031 225.782 187.914 225.206 187.679C224.64 187.444 224.15 187.114 223.734 186.687C223.328 186.25 223.051 185.732 222.902 185.135L224.79 184.463C224.971 185.007 225.264 185.412 225.67 185.679C226.075 185.935 226.523 186.063 227.014 186.063C227.419 186.063 227.776 185.978 228.086 185.807C228.406 185.626 228.651 185.38 228.822 185.071C228.992 184.751 229.078 184.383 229.078 183.967C229.078 183.551 228.987 183.188 228.806 182.879C228.635 182.57 228.395 182.33 228.086 182.159C227.776 181.978 227.419 181.887 227.014 181.887C226.598 181.887 226.219 181.978 225.878 182.159C225.547 182.34 225.307 182.602 225.158 182.943L223.382 182.543L224.326 175.919H230.822V177.759H225.19L226.006 176.815L225.334 181.807L224.71 181.295C225.008 180.858 225.371 180.538 225.798 180.335C226.235 180.132 226.763 180.031 227.382 180.031C228.171 180.031 228.854 180.202 229.43 180.543C230.016 180.884 230.47 181.348 230.79 181.935C231.11 182.522 231.27 183.199 231.27 183.967C231.27 184.735 231.083 185.428 230.71 186.047C230.336 186.666 229.83 187.151 229.19 187.503C228.55 187.855 227.824 188.031 227.014 188.031ZM234.553 187.839L244.217 175.919H246.457L236.793 187.839H234.553ZM236.409 181.967C235.823 181.967 235.289 181.828 234.809 181.551C234.34 181.263 233.967 180.884 233.689 180.415C233.412 179.946 233.273 179.423 233.273 178.847C233.273 178.271 233.412 177.748 233.689 177.279C233.967 176.799 234.34 176.42 234.809 176.143C235.289 175.866 235.823 175.727 236.409 175.727C237.007 175.727 237.54 175.866 238.009 176.143C238.479 176.42 238.852 176.799 239.129 177.279C239.407 177.748 239.545 178.271 239.545 178.847C239.545 179.423 239.407 179.946 239.129 180.415C238.852 180.884 238.479 181.263 238.009 181.551C237.54 181.828 237.007 181.967 236.409 181.967ZM236.409 180.351C236.729 180.351 236.996 180.282 237.209 180.143C237.423 179.994 237.583 179.807 237.689 179.583C237.807 179.348 237.865 179.103 237.865 178.847C237.865 178.58 237.807 178.335 237.689 178.111C237.583 177.887 237.423 177.7 237.209 177.551C236.996 177.402 236.729 177.327 236.409 177.327C236.111 177.327 235.849 177.402 235.625 177.551C235.412 177.7 235.247 177.892 235.129 178.127C235.012 178.351 234.953 178.591 234.953 178.847C234.953 179.092 235.012 179.332 235.129 179.567C235.247 179.802 235.412 179.994 235.625 180.143C235.849 180.282 236.111 180.351 236.409 180.351ZM244.537 188.031C243.951 188.031 243.417 187.892 242.937 187.615C242.468 187.327 242.095 186.948 241.817 186.479C241.54 186.01 241.401 185.487 241.401 184.911C241.401 184.335 241.54 183.812 241.817 183.343C242.095 182.863 242.468 182.484 242.937 182.207C243.417 181.93 243.951 181.791 244.537 181.791C245.135 181.791 245.668 181.93 246.137 182.207C246.607 182.484 246.98 182.863 247.257 183.343C247.535 183.812 247.673 184.335 247.673 184.911C247.673 185.487 247.535 186.01 247.257 186.479C246.98 186.948 246.607 187.327 246.137 187.615C245.668 187.892 245.135 188.031 244.537 188.031ZM244.537 186.415C244.847 186.415 245.108 186.346 245.321 186.207C245.545 186.058 245.711 185.871 245.817 185.647C245.935 185.412 245.993 185.167 245.993 184.911C245.993 184.644 245.935 184.399 245.817 184.175C245.711 183.951 245.545 183.764 245.321 183.615C245.108 183.466 244.847 183.391 244.537 183.391C244.239 183.391 243.977 183.466 243.753 183.615C243.54 183.764 243.375 183.956 243.257 184.191C243.14 184.415 243.081 184.655 243.081 184.911C243.081 185.156 243.14 185.396 243.257 185.631C243.375 185.866 243.54 186.058 243.753 186.207C243.977 186.346 244.239 186.415 244.537 186.415Z" fill="white"/>
</svg>
