<svg width="20" height="21" viewBox="0 0 20 21" fill="none" xmlns="http://www.w3.org/2000/svg">
<path d="M15.0258 14.3476L18.595 17.9159L17.4158 19.0951L13.8475 15.5259C12.5197 16.5903 10.8683 17.1692 9.16663 17.1667C5.02663 17.1667 1.66663 13.8067 1.66663 9.66675C1.66663 5.52675 5.02663 2.16675 9.16663 2.16675C13.3066 2.16675 16.6666 5.52675 16.6666 9.66675C16.669 11.3684 16.0901 13.0199 15.0258 14.3476ZM13.3541 13.7292C14.4117 12.6417 15.0023 11.1838 15 9.66675C15 6.44341 12.3891 3.83341 9.16663 3.83341C5.94329 3.83341 3.33329 6.44341 3.33329 9.66675C3.33329 12.8892 5.94329 15.5001 9.16663 15.5001C10.6837 15.5025 12.1415 14.9118 13.2291 13.8542L13.3541 13.7292Z" fill="white"/>
</svg>
