<svg width="383" height="115" viewBox="0 0 383 115" fill="none" xmlns="http://www.w3.org/2000/svg">
<path d="M15.32 8.48549C16.0679 3.60442 20.2666 0 25.2046 0H372.742C378.733 0 383.379 5.23068 382.673 11.1792L371.392 106.179C370.794 111.211 366.528 115 361.462 115H10.6489C4.52251 115 -0.16361 109.541 0.764237 103.485L15.32 8.48549Z" fill="#333333"/>
<path d="M15.8142 8.56121C16.5247 3.92419 20.5135 0.5 25.2046 0.5H372.742C378.433 0.5 382.847 5.46915 382.176 11.1202L370.895 106.12C370.328 110.9 366.275 114.5 361.462 114.5H10.6489C4.82883 114.5 0.377015 109.314 1.25847 103.561L15.8142 8.56121Z" stroke="white" stroke-opacity="0.1"/>
</svg>
