<svg width="32" height="33" viewBox="0 0 32 33" fill="none" xmlns="http://www.w3.org/2000/svg">
<path d="M30.6667 13.4466C30.7326 11.5382 30.3153 9.644 29.4534 7.93998C28.8686 7.24078 28.057 6.76893 27.16 6.60665C23.45 6.27001 19.7247 6.13204 16 6.19331C12.2889 6.12926 8.57696 6.26278 4.88002 6.59331C4.14911 6.72627 3.47271 7.0691 2.93335 7.57998C1.73335 8.68665 1.60002 10.58 1.46668 12.18C1.27323 15.0567 1.27323 17.9432 1.46668 20.82C1.50526 21.7205 1.63934 22.6144 1.86668 23.4867C2.02745 24.1601 2.35271 24.7831 2.81335 25.3C3.35637 25.8379 4.04853 26.2003 4.80002 26.34C7.67457 26.6948 10.571 26.8419 13.4667 26.78C18.1334 26.8466 22.2267 26.78 27.0667 26.4067C27.8366 26.2755 28.5483 25.9127 29.1067 25.3666C29.48 24.9932 29.7588 24.5361 29.92 24.0333C30.3969 22.5701 30.6311 21.0388 30.6133 19.5C30.6667 18.7533 30.6667 14.2466 30.6667 13.4466ZM12.9867 20.3V12.0466L20.88 16.1933C18.6667 17.42 15.7467 18.8066 12.9867 20.3Z" fill="white"/>
</svg>
