<svg width="36" height="31" viewBox="0 0 36 31" fill="none" xmlns="http://www.w3.org/2000/svg">
<path d="M34.3897 22.3853L35 20.5371L33.8667 18.4012L32.8903 18.1658L30.6062 15.0012C30.6062 12.6212 29.2113 12.072 27.4067 12.1243V16.4222L30.8241 19.0986L30.1354 19.8745L30.3621 22.4289L32.0446 23.1351L34.3897 22.3853ZM30.92 19.0812L32.9862 18.131L30.92 19.0812ZM18 14.5915C18.4994 14.592 18.9824 14.7696 19.3632 15.0928C19.7439 15.416 19.9976 15.8638 20.0792 16.3565C20.1608 16.8492 20.065 17.3549 19.8088 17.7836C19.5526 18.2122 19.1526 18.5361 18.68 18.6976L19.6041 23.1612L18 23.6058L16.3785 23.1612L17.3026 18.6976C16.8285 18.5357 16.4276 18.2104 16.1714 17.7798C15.9153 17.3493 15.8207 16.8417 15.9046 16.3479C15.9885 15.854 16.2454 15.4061 16.6293 15.0843C17.0132 14.7625 17.4991 14.5878 18 14.5915V14.5915ZM20.8421 27.4068C20.9641 28.6971 21.2082 30.0222 21.4785 30.0222H27.4328C29.3769 30.0222 29.4031 22.2807 27.5723 22.2807H26.5523L20.8421 27.4068ZM1.61026 22.3853L1 20.5371L2.13333 18.4012L3.10974 18.1658L5.39385 15.0012C5.39385 12.6212 6.78872 12.072 8.59333 12.1243V16.4222L5.1759 19.0812L5.86462 19.8571L5.63795 22.4115L3.95538 23.1176L1.61026 22.3853ZM5.1759 19.0812L3.10974 18.131L5.1759 19.0812ZM15.2626 27.4068C15.1405 28.6971 14.8964 30.0222 14.6174 30.0222H8.66308C6.72769 30.0222 6.69282 22.2807 8.52359 22.2807H9.55231L15.2626 27.4068ZM23.1697 8.44531H20.5544V7.78275C20.6052 7.47258 20.7646 7.19057 21.0041 6.98708C21.2437 6.78359 21.5477 6.67188 21.8621 6.67188C22.1764 6.67188 22.4804 6.78359 22.72 6.98708C22.9595 7.19057 23.1189 7.47258 23.1697 7.78275V8.44531ZM15.4892 8.44531H12.8738V7.78275C12.9247 7.47258 13.0841 7.19057 13.3236 6.98708C13.5632 6.78359 13.8672 6.67188 14.1815 6.67188C14.4958 6.67188 14.7999 6.78359 15.0395 6.98708C15.279 7.19057 15.4384 7.47258 15.4892 7.78275V8.44531Z" stroke="url(#paint0_linear_53_1622)" stroke-linecap="round" stroke-linejoin="round"/>
<path d="M26.1148 11.7056H9.88198C9.53978 11.7056 9.2116 11.8416 8.96963 12.0836C8.72766 12.3255 8.59173 12.6537 8.59173 12.9959V18.4359C8.59173 20.9307 9.58278 23.3233 11.3469 25.0874C13.111 26.8515 15.5036 27.8426 17.9984 27.8426C20.4932 27.8426 22.8858 26.8515 24.6499 25.0874C26.414 23.3233 27.4051 20.9307 27.4051 18.4359V12.9959C27.4051 12.6537 27.2691 12.3255 27.0272 12.0836C26.7852 11.8416 26.457 11.7056 26.1148 11.7056V11.7056ZM17.9984 1C20.4932 1 22.8858 1.99106 24.6499 3.75515C26.414 5.51924 27.4051 7.91187 27.4051 10.4067V10.4067C27.4051 10.5773 27.3715 10.7462 27.3062 10.9038C27.2409 11.0614 27.1452 11.2046 27.0246 11.3252C26.904 11.4458 26.7608 11.5415 26.6032 11.6068C26.4456 11.672 26.2767 11.7056 26.1061 11.7056H9.88198C9.53747 11.7056 9.20707 11.5688 8.96347 11.3252C8.71986 11.0816 8.58301 10.7512 8.58301 10.4067V10.4067C8.58301 9.17063 8.82661 7.94672 9.29988 6.80488C9.77316 5.66304 10.4668 4.62567 11.3412 3.75207C12.2157 2.87846 13.2537 2.18576 14.3959 1.71354C15.5382 1.24132 16.7624 0.998859 17.9984 1V1Z" stroke="url(#paint1_linear_53_1622)" stroke-linecap="round" stroke-linejoin="round"/>
<defs>
<linearGradient id="paint0_linear_53_1622" x1="18" y1="6.67187" x2="18" y2="30.0222" gradientUnits="userSpaceOnUse">
<stop stop-color="#00ECBC"/>
<stop offset="1" stop-color="#00ECBC" stop-opacity="0.4"/>
</linearGradient>
<linearGradient id="paint1_linear_53_1622" x1="17.994" y1="1" x2="17.994" y2="27.8426" gradientUnits="userSpaceOnUse">
<stop stop-color="#00ECBC"/>
<stop offset="1" stop-color="#00ECBC" stop-opacity="0.4"/>
</linearGradient>
</defs>
</svg>

